<?xml version="1.0" encoding="UTF-8"?><svg id="Layer_1" xmlns="http://www.w3.org/2000/svg" width="743.0" height="743.0" viewBox="73.5 57.0 743.0 743.0"><defs><style>.cls-1{fill:#31b8aa;}.cls-2{fill:#2a69a2;}.cls-3{fill:#0d1926;}</style></defs><rect class="cls-3" x="-2.157" y=".037" width="852.695" height="850.08"/><path class="cls-2" d="M570.283,119.551l48.079.216c24.958.112,50.401,23.686,53.412,50.308l13.481,119.186,11.86,100.34c2.798,23.674-10.186,45.944-32.258,54.262-7.563,2.85-14.891,3.077-23.36,3.083l-424.569.324c-31.803.024-57.463-23.612-53.694-56.984l16.03-141.916,8.525-75.372c3.342-29.548,27.664-53.384,57.227-53.433l44.462-.073c.167,9.134-.325,17.936.417,26.805,1.237,14.775,13.408,25.239,26.991,25.177,14.411-.066,26.733-10.797,26.95-26.099l.368-25.897,58.498-.017.516,26.907c.286,14.935,13.896,25.498,27.971,24.993,13.886-.497,25.742-12.119,25.899-26.863l.267-25.054,58.711.071.407,26.901c.206,13.615,11.847,23.931,24.088,24.945,13.903,1.152,25.559-7.645,29.195-21.192l.527-30.618ZM617.624,149.027c15.213,2.411,24.155,14.539,25.631,28.716l5.722,54.992,16.86,152.045c1.666,15.025-9.029,31.818-25.264,31.824l-419.76.149c-16.898.006-28.146-15.983-26.369-32.02l13.632-122.998,8.825-84.025c1.38-13.138,9.345-24.459,22.29-28.082,9.579-2.681,24.366,2.001,23.657-7.626-.182-2.475-2.578-5.666-5.572-5.865-6.605-.44-13.01-.571-19.387.946-18.415,4.381-31.58,19.166-33.614,38.184l-13.613,127.235-9.122,85.136c-2.141,19.986,14.476,40.358,35.824,42.117l424.154-.034c9.818,0,18.964-5.47,25.659-11.531,9.002-8.149,11.571-19.429,11.986-31.652l-23.656-213.39c-1.785-16.105-12.517-28.174-26.864-33.994-7.319-2.969-34.413-7.625-31.546,4.382,1.863,7.802,9.941,3.813,20.527,5.49ZM308.734,247.852c5.468-.024,6.865-6.789,6.981-10.405l1.103-34.385c.182-5.682-3.121-10.748-9.236-10.751l-37.151-.021c-4.735-.003-8.971,3.56-9.259,8.433l-2.186,37.003c-.298,5.049,2.991,10.333,8.631,10.309l41.116-.182ZM379.457,248.097c4.083-.801,7.117-4.267,7.185-8.268l.659-38.679c.088-5.162-4.437-8.948-9.219-8.932l-37.261.126c-4.654.016-8.677,4.327-8.806,8.996l-1.047,37.806c-.145,5.228,4.15,8.917,8.943,8.92l39.545.031ZM450.396,248.144c4.659-1.45,7.328-4.384,7.291-8.851l-.314-38.064c-.036-4.321-3.757-8.908-8.044-8.914l-37.272-.055c-5.143-.008-9.502,4.02-9.548,9.523l-.315,37.459c-.036,4.332,3.54,8.749,8.232,8.765l39.969.137ZM522.742,248.106c5.238-1.936,6.709-6.071,6.535-10.815l-1.258-34.297c-.156-4.261-2.263-10.503-7.629-10.528l-38.907-.179c-4.069-.019-8.715,3.58-8.77,7.865-.181,13.984.037,27.12.851,41.183.193,3.332,4.747,6.717,7.862,6.72l41.316.049ZM591.038,248.139c5.79.011,10.121-3.804,9.776-9.848l-2.166-38.003c-.173-3.036-3.466-7.97-6.834-7.967l-39.9.031c-5.205.004-9.208,4.812-8.954,9.784l1.993,39.076c.234,4.596,6.084,6.852,9.758,6.859l36.327.068ZM595.355,319.017c5.769-.002,9.254-4.155,8.957-9.419l-2.04-36.152c-.285-5.05-2.38-10.105-8.46-10.117l-39.097-.081c-4.028-.008-8.672,2.743-8.519,7.512l1.248,38.908c.136,4.251,3.268,9.364,7.917,9.363l39.993-.013ZM304.331,319.006c5.585-.159,8.335-4.842,8.482-9.334l1.221-37.216c.163-4.962-3.317-9.127-8.32-9.137l-39.216-.079c-4.258-.009-8.373,2.805-8.617,7.565l-2.028,39.598c-.154,3,2.958,8.017,5.837,8.173,14.428.781,28.016.848,42.641.43ZM378.585,318.902c4.438-.177,6.852-5.605,6.914-9.028l.696-38.328c.098-5.418-4.521-8.308-9.142-8.303l-38.197.041c-5.376.006-8.784,4.056-8.942,9.226l-1.158,38.115c-.114,3.742,2.268,7.894,6.251,8.073,14.573.654,28.624.802,43.577.205ZM522.146,319.194c6.133.01,9.445-3.781,9.259-9.55l-1.223-37.965c-.13-4.025-3.176-8.29-7.558-8.301l-40.143-.096c-5.802-.014-8.861,4.815-8.758,10.141l.699,36.149c.122,6.299,4.659,9.552,10.627,9.562l37.096.061ZM418.564,310.083c1.993,2.054,6.019,2.497,8.128.325l20.223-20.818c4.19-4.314,8.678-8.56,11.891-13.752,1.892-3.057-5.149-9.908-8.127-8.112l-25.177,25.849c-5.506,5.653-8.223-6.796-15.604-8.63-3.459-.86-8.29,5.122-7.559,8.416l16.223,16.722ZM303.576,390.798c6.123-2.778,6.354-7.424,6.55-12.851.437-12.12,1.114-23.997.921-36.107-.077-4.854-5.186-7.329-9.208-7.328l-38.21.011c-5.287.001-9.488,3.039-9.807,8.585l-2.182,37.847c-.314,5.446,3.631,9.815,9.194,9.818l42.743.026ZM377.421,390.854c1.927-1.023,6.507-4.055,6.56-6.092l1.071-40.978c.121-4.624-3.132-9.261-8.073-9.248l-41.004.106c-5.272.014-8.17,4.621-8.33,9.087l-1.368,38.165c-.169,4.72,4.222,8.84,8.791,8.851l42.354.109ZM458.616,383.524l-.331-40.679c-.035-4.283-3.474-8.302-8.059-8.287l-41.07.138c-5.061.017-7.59,5.663-7.629,9.803l-.355,37.44c-.047,4.912,4.364,8.859,9.174,8.857l39.877-.014c3.367-.001,8.428-3.052,8.394-7.257ZM525.805,390.782c5.118.001,8.149-4.453,8-8.82l-1.236-36.238c-.207-6.078-3.19-11.229-10.057-11.189l-41.211.241c-2.545.015-6.436,4.7-6.408,7.055l.473,39.173c.061,5.03,3.882,9.766,9.17,9.767l41.268.01ZM599.994,390.739c6.352-.018,8.719-5.41,8.412-10.334l-2.342-37.619c-.28-4.494-3.489-8.159-8.307-8.171l-40.072-.102c-5.284-.013-9.598,3.556-9.344,9.321l1.703,38.578c.225,5.088,4.966,8.456,9.592,8.443l40.359-.115Z"/><path class="cls-1" d="M356.868,542.153l63.889-.125.055,53.965-194.272-.534c-26.186-.072-47.467-20.662-54.113-44.803l-17.307-62.872c10.815,5.975,20.797,10.968,32.359,14.491,7.532,1.286,14.585,2.198,22.474,2.503l104.931.014c1.604,22.992,19.483,37.405,41.983,37.361Z"/><path class="cls-1" d="M439.313,542.084l67.494-.093c20.695-.653,36.947-15.992,38.487-37.212l108.157-.152c18.943-.027,35.022-6.864,51.358-17.293l-17.729,65.01c-7.205,26.418-30.813,43.276-58.159,43.545l-189.605.01-.004-53.815Z"/><path class="cls-2" d="M507.184,527.106l-156.056-.118c-11.65-2.44-21.025-10.304-21.12-22.503l-.336-42.99,200.675.007c.243,14.172.331,28.153-.175,42.471-.447,12.652-10.195,21.82-22.987,23.133Z"/><path class="cls-1" d="M143.219,745.293l477.703.051,6.431,11.495-485.679-.053c-15.92-.002-29.292-9.032-37.649-21.772-9.9-15.092-10.524-34.996-.487-50.279,7.571-11.528,20.226-22.204,35.182-22.208l488.054-.14-6.367,11.558-479.48.161c-19.642.007-33.791,18.273-33.31,36.408.493,18.579,15.49,34.777,35.603,34.779Z"/><path class="cls-2" d="M314.844,461.509l.104,28.694-107.922-.338c-46.75-.147-82.435-43.555-76.76-89.44l6.767-54.707,19.435-161.075c1.951-16.17,11.073-30.003,24.699-39.663-3.968,9.436-6.791,18.289-7.941,28.674l-13.749,124.154-10.552,91.807c-4.419,38.445,25.152,71.7,64.08,71.754l101.837.141Z"/><path class="cls-2" d="M545.377,461.639l105.225-.469c17.465-.078,34.128-9.137,45.456-21.996,11.662-13.237,17.288-30.92,15.272-48.504l-9.635-84.037-14.171-127.444c-1.334-11.994-3.33-22.582-8.138-33.966,13.4,9.535,22.182,23.189,24.075,38.95l13.085,108.908,13.256,110.305c5.323,44.295-30.714,86.128-75.335,86.357l-108.948.558-.142-28.661Z"/><path class="cls-1" d="M763.838,708.793c0,37.944-30.76,68.703-68.703,68.703s-68.703-30.76-68.703-68.703,30.76-68.703,68.703-68.703,68.703,30.76,68.703,68.703ZM751.618,708.694c0-31.172-25.27-56.443-56.443-56.443s-56.443,25.27-56.443,56.443,25.27,56.443,56.443,56.443,56.443-25.27,56.443-56.443Z"/><path class="cls-2" d="M556.049,145.618c-.018,8.158-7.308,12.706-13.465,12.403-7.676-.377-12.499-6.599-12.527-14.613l-.176-51.832c-.027-7.946,5.002-13.906,12.711-14.314,6.486-.343,13.599,4.866,13.582,12.566l-.125,55.789Z"/><path class="cls-2" d="M442.861,144.607c-.005,7.809-5.379,12.902-11.71,13.387-6.45.495-13.761-3.932-13.812-11.791l-.361-55.385c-.051-7.901,5.123-13.407,12.293-13.607,7.254-.202,13.631,4.687,13.626,13.086l-.035,54.31Z"/><path class="cls-2" d="M329.853,144.983c-.022,7.787-5.699,12.577-12.063,13.074-6.16.481-13.455-4.499-13.466-11.884l-.081-57.261c-.01-7.248,6.744-11.585,12.696-11.652,6.519-.073,13.089,5.139,13.068,12.489l-.156,55.233Z"/><path class="cls-3" d="M599.994,390.739l-40.359.115c-4.626.013-9.367-3.354-9.592-8.443l-1.703-38.578c-.254-5.765,4.06-9.334,9.344-9.321l40.072.102c4.818.012,8.027,3.677,8.307,8.171l2.342,37.619c.307,4.925-2.06,10.316-8.412,10.334Z"/><path class="cls-3" d="M525.805,390.782l-41.268-.01c-5.287-.001-9.109-4.737-9.17-9.767l-.473-39.173c-.028-2.355,3.863-7.04,6.408-7.055l41.211-.241c6.867-.04,9.85,5.111,10.057,11.189l1.236,36.238c.149,4.367-2.883,8.821-8,8.82Z"/><path class="cls-3" d="M377.421,390.854l-42.354-.109c-4.569-.012-8.96-4.131-8.791-8.851l1.368-38.165c.16-4.466,3.058-9.073,8.33-9.087l41.004-.106c4.941-.013,8.194,4.624,8.073,9.248l-1.071,40.978c-.053,2.037-4.633,5.069-6.56,6.092Z"/><path class="cls-3" d="M303.576,390.798l-42.743-.026c-5.563-.003-9.508-4.372-9.194-9.818l2.182-37.847c.32-5.546,4.52-8.583,9.807-8.585l38.21-.011c4.022-.001,9.131,2.474,9.208,7.328.193,12.11-.484,23.987-.921,36.107-.196,5.427-.427,10.074-6.55,12.851Z"/><path class="cls-3" d="M458.616,383.524c.034,4.205-5.026,7.256-8.394,7.257l-39.877.014c-4.81.002-9.22-3.945-9.174-8.857l.355-37.44c.039-4.14,2.568-9.786,7.629-9.803l41.07-.138c4.585-.015,8.024,4.004,8.059,8.287l.331,40.679Z"/><path class="cls-3" d="M522.146,319.194l-37.096-.061c-5.968-.01-10.505-3.263-10.627-9.562l-.699-36.149c-.103-5.327,2.956-10.155,8.758-10.141l40.143.096c4.382.011,7.428,4.276,7.558,8.301l1.223,37.965c.186,5.769-3.125,9.561-9.259,9.55Z"/><path class="cls-3" d="M378.585,318.902c-14.953.597-29.004.449-43.577-.205-3.983-.179-6.365-4.331-6.251-8.073l1.158-38.115c.157-5.17,3.566-9.22,8.942-9.226l38.197-.041c4.621-.005,9.241,2.885,9.142,8.303l-.696,38.328c-.062,3.424-2.476,8.851-6.914,9.028Z"/><path class="cls-3" d="M304.331,319.006c-14.625.417-28.213.351-42.641-.43-2.879-.156-5.99-5.173-5.837-8.173l2.028-39.598c.244-4.759,4.359-7.573,8.617-7.565l39.216.079c5.003.01,8.483,4.175,8.32,9.137l-1.221,37.216c-.147,4.492-2.897,9.175-8.482,9.334Z"/><path class="cls-3" d="M595.355,319.017l-39.993.013c-4.65.002-7.781-5.112-7.917-9.363l-1.248-38.908c-.153-4.769,4.491-7.52,8.519-7.512l39.097.081c6.08.013,8.175,5.068,8.46,10.117l2.04,36.152c.297,5.265-3.188,9.417-8.957,9.419Z"/><path class="cls-3" d="M308.734,247.852l-41.116.182c-5.64.025-8.929-5.259-8.631-10.309l2.186-37.003c.288-4.873,4.524-8.436,9.259-8.433l37.151.021c6.115.004,9.419,5.069,9.236,10.751l-1.103,34.385c-.116,3.616-1.514,10.381-6.981,10.405Z"/><path class="cls-3" d="M591.038,248.139l-36.327-.068c-3.674-.007-9.524-2.263-9.758-6.859l-1.993-39.076c-.254-4.972,3.75-9.78,8.954-9.784l39.9-.031c3.368-.003,6.661,4.931,6.834,7.967l2.166,38.003c.345,6.044-3.986,9.859-9.776,9.848Z"/><path class="cls-3" d="M522.742,248.106l-41.316-.049c-3.115-.004-7.669-3.389-7.862-6.72-.814-14.062-1.032-27.198-.851-41.183.055-4.285,4.701-7.884,8.77-7.865l38.907.179c5.366.025,7.473,6.266,7.629,10.528l1.258,34.297c.174,4.744-1.297,8.878-6.535,10.815Z"/><path class="cls-3" d="M379.457,248.097l-39.545-.031c-4.793-.004-9.088-3.693-8.943-8.92l1.047-37.806c.129-4.668,4.153-8.98,8.806-8.996l37.261-.126c4.782-.016,9.307,3.77,9.219,8.932l-.659,38.679c-.068,4.001-3.102,7.467-7.185,8.268Z"/><path class="cls-3" d="M450.396,248.144l-39.969-.137c-4.692-.016-8.268-4.433-8.232-8.765l.315-37.459c.046-5.503,4.405-9.531,9.548-9.523l37.272.055c4.287.006,8.008,4.593,8.044,8.914l.314,38.064c.037,4.467-2.632,7.401-7.291,8.851Z"/><path class="cls-1" d="M418.564,310.083l-16.223-16.722c-.732-3.294,4.099-9.276,7.559-8.416,7.381,1.834,10.098,14.283,15.604,8.63l25.177-25.849c2.978-1.796,10.018,5.055,8.127,8.112-3.214,5.192-7.701,9.439-11.891,13.752l-20.223,20.818c-2.109,2.171-6.135,1.729-8.128-.325Z"/><path class="cls-1" d="M682.219,736.919l-11.969-12.14-12.961-13.927c3.026-4.509,6.041-7.582,10.873-10.836l13.974,13.994c.78.781,3.038,1.845,4.441,1.949l35.353-36.087c4.228,1.996,7.55,4.928,9.981,8.636.765,1.167-.74,4.486-1.769,5.554l-23.943,24.844-18.02,18.188c-1.147,1.158-4.719,1.085-5.96-.174Z"/><rect class="cls-1" x="226.35" y="686.876" width="87.642" height="45.614"/><rect class="cls-1" x="327.31" y="686.822" width="87.427" height="45.675"/><path class="cls-1" d="M212.761,686.844l.06,45.441-71.202-.068c-7.361-.007-13.529-5.911-16.29-10.395-4.39-7.13-4.237-14.683-1.318-21.597,3.295-7.804,10.57-13.277,19.474-13.289l69.276-.092Z"/><rect class="cls-1" x="428.172" y="686.824" width="87.427" height="45.675"/><rect class="cls-1" x="391.753" y="541.881" width="87.427" height="54.219"/></svg>